<svg xmlns="http://www.w3.org/2000/svg"  viewBox="0 0 64 64" width="64px" height="64px" baseProfile="basic"><linearGradient id="ig8PaeBg7io5km0NGkidOa" x1="30.35" x2="30.35" y1="8.326" y2="53.524" gradientUnits="userSpaceOnUse"><stop offset="0" stop-color="#6dc7ff"/><stop offset=".699" stop-color="#e6abff"/></linearGradient><path fill="url(#ig8PaeBg7io5km0NGkidOa)" d="M47.2,20.38l-14.8,8.88c-2.1,1.26-3.4,3.56-3.4,6v16.7l-14.5-8.37c-0.62-0.35-1-1.02-1-1.73 V25.44l9.94,6.12C23.92,31.85,24.46,32,25,32c1.05,0,2.03-0.56,2.57-1.46c0.85-1.41,0.39-3.26-1.03-4.11l-10.05-6.19l14.23-8.21 c0.31-0.18,0.65-0.27,1-0.27c0.36,0,0.7,0.09,1,0.26L47.2,20.38z"/><linearGradient id="ig8PaeBg7io5km0NGkidOb" x1="42.475" x2="42.475" y1="23.517" y2="52.648" gradientUnits="userSpaceOnUse"><stop offset="0" stop-color="#6dc7ff"/><stop offset=".699" stop-color="#e6abff"/></linearGradient><path fill="url(#ig8PaeBg7io5km0NGkidOb)" d="M35.49,34.41 c-0.3,0.17-0.49,0.51-0.49,0.85v16.38l13.95-8.05c0.62-0.35,1-1.02,1-1.73V25.73L35.49,34.41z M35.49,34.41 c-0.3,0.17-0.49,0.51-0.49,0.85v16.38l13.95-8.05c0.62-0.35,1-1.02,1-1.73V25.73L35.49,34.41z M35,35.26v16.38l13.95-8.05 c0.62-0.35,1-1.02,1-1.73V25.73l-14.46,8.68C35.19,34.58,35,34.92,35,35.26z"/><linearGradient id="ig8PaeBg7io5km0NGkidOc" x1="31.725" x2="31.725" y1="5.554" y2="61.208" gradientUnits="userSpaceOnUse"><stop offset="0" stop-color="#1a6dff"/><stop offset="1" stop-color="#c822ff"/></linearGradient><path fill="url(#ig8PaeBg7io5km0NGkidOc)" d="M50.95,17.93L34.72,8.56 c-0.92-0.53-1.96-0.8-3-0.8c-1.03,0-2.07,0.27-3,0.8L12.5,17.93c-1.85,1.07-3,3.06-3,5.19v18.74c0,2.14,1.15,4.13,3,5.2 l16.22,9.36c0.93,0.54,1.97,0.8,3.01,0.8c1.03,0,2.07-0.26,2.99-0.8l16.23-9.36c1.85-1.07,3-3.06,3-5.2V23.12 C53.95,20.99,52.8,19,50.95,17.93z M51.95,41.86c0,1.42-0.77,2.75-2,3.46l-16.23,9.37c-0.23,0.13-0.47,0.23-0.72,0.32V35.26 c0-1.04,0.56-2.03,1.46-2.57l17.39-10.43c0.06,0.28,0.1,0.57,0.1,0.86V41.86z M31,55.15c-0.44-0.08-0.88-0.23-1.28-0.46 L13.5,45.32c-1.23-0.71-2-2.04-2-3.46V23.12c0-0.39,0.06-0.78,0.18-1.15l12.81,7.89C24.65,29.95,24.82,30,25,30 c0.34,0,0.67-0.17,0.86-0.49c0.28-0.47,0.13-1.08-0.35-1.37l-12.8-7.88c0.24-0.23,0.5-0.43,0.79-0.6l16.22-9.37 c0.62-0.35,1.31-0.53,2-0.53c0.7,0,1.39,0.18,2,0.53l16.23,9.37c0.38,0.22,0.7,0.5,0.98,0.81l-17.5,10.51 c-1.5,0.9-2.43,2.54-2.43,4.28V55.15z"/></svg>